# Blender v2.79 (sub 0) OBJ File: 'trash4.blend'
# www.blender.org
o Cylinder
v 0.000000 12.000001 -10.999999
v -0.000000 15.065463 17.686445
v 2.210373 12.112297 -10.999999
v 2.826357 15.209054 17.686445
v 4.209518 11.162676 -11.000000
v 5.382620 13.994793 17.686445
v 6.294611 10.420551 -11.000000
v 8.048783 13.045853 17.686445
v 7.778174 8.778175 -11.000000
v 9.945786 10.945784 17.686445
v 9.420551 7.294611 -11.000000
v 12.045856 9.048781 17.686445
v 10.162675 5.209518 -11.000000
v 12.994795 6.382618 17.686445
v 11.112296 3.210374 -11.000000
v 14.209057 3.826356 17.686445
v 11.000000 1.000001 -11.000000
v 14.065465 0.999999 17.686445
v 11.112296 -1.210372 -11.000000
v 14.209058 -1.826357 17.686445
v 10.162675 -3.209516 -11.000000
v 12.994795 -4.382620 17.686445
v 9.420551 -5.294610 -11.000000
v 12.045856 -7.048785 17.686445
v 7.778174 -6.778174 -11.000000
v 9.945786 -8.945787 17.686445
v 6.294610 -8.420550 -11.000000
v 8.048782 -11.045859 17.686445
v 4.209516 -9.162675 -11.000000
v 5.382618 -11.994800 17.686445
v 2.210371 -10.112298 -11.000001
v 2.826353 -13.209061 17.686445
v -0.000004 -9.999999 -11.000001
v -0.000005 -13.065468 17.686445
v -2.210378 -10.112296 -11.000001
v -2.826363 -13.209059 17.686445
v -4.209523 -9.162672 -11.000000
v -5.382627 -11.994795 17.686445
v -6.294616 -8.420547 -11.000000
v -8.048792 -11.045855 17.686445
v -7.778180 -6.778169 -11.000000
v -9.945793 -8.945782 17.686445
v -9.420555 -5.294603 -11.000000
v -12.045863 -7.048778 17.686445
v -10.162679 -3.209509 -11.000000
v -12.994801 -4.382612 17.686445
v -11.112300 -1.210363 -11.000000
v -14.209060 -1.826346 17.686445
v -11.000000 1.000011 -11.000000
v -14.065465 1.000012 17.686445
v -11.112295 3.210386 -11.000000
v -14.209055 3.826370 17.686445
v -10.162670 5.209529 -11.000000
v -12.994789 6.382633 17.686445
v -9.420543 7.294623 -11.000000
v -12.045847 9.048797 17.686445
v -7.778165 8.778185 -11.000000
v -9.945773 10.945797 17.686445
v -6.294598 10.420560 -11.000000
v -8.048768 13.045866 17.686445
v -4.209503 11.162683 -11.000000
v -5.382602 13.994801 17.686445
v -2.210356 12.112300 -10.999999
v -2.826336 15.209059 17.686445
v 2.870241 15.429677 17.686445
v -0.000000 15.712372 17.686445
v 5.630182 14.592458 17.686445
v 8.173757 13.232889 17.686445
v 10.403219 11.403217 17.686445
v 12.232893 9.173754 17.686445
v 13.592462 6.630180 17.686445
v 14.429680 3.870240 17.686445
v 14.712374 0.999999 17.686445
v 14.429681 -1.870242 17.686445
v 13.592462 -4.630181 17.686445
v 12.232893 -7.173759 17.686445
v 10.403219 -9.403221 17.686445
v 8.173757 -11.232895 17.686445
v 5.630179 -12.592466 17.686445
v 2.870238 -13.429683 17.686445
v -0.000005 -13.712378 17.686445
v -2.870248 -13.429682 17.686445
v -5.630189 -12.592462 17.686445
v -8.173765 -11.232891 17.686445
v -10.403227 -9.403215 17.686445
v -12.232898 -7.173751 17.686445
v -13.592466 -4.630173 17.686445
v -14.429682 -1.870231 17.686445
v -14.712374 1.000012 17.686445
v -14.429678 3.870255 17.686445
v -13.592455 6.630196 17.686445
v -12.232882 9.173770 17.686445
v -10.403207 11.403231 17.686445
v -8.173741 13.232902 17.686445
v -5.630162 14.592467 17.686445
v -2.870220 15.429681 17.686445
v 2.884333 15.500520 19.144863
v -0.000000 15.784603 19.144863
v 5.657824 14.659188 19.144863
v 8.213886 13.292946 19.144863
v 10.454294 11.454291 19.144863
v 12.292951 9.213883 19.144863
v 13.659194 6.657822 19.144863
v 14.500523 3.884332 19.144863
v 14.784604 0.999999 19.144863
v 14.500524 -1.884334 19.144863
v 13.659194 -4.657823 19.144863
v 12.292951 -7.213887 19.144863
v 10.454294 -9.454296 19.144863
v 8.213885 -11.292953 19.144863
v 5.657821 -12.659199 19.144863
v 2.884330 -13.500525 19.144863
v -0.000005 -13.784608 19.144863
v -2.884340 -13.500525 19.144863
v -5.657830 -12.659193 19.144863
v -8.213894 -11.292951 19.144863
v -10.454302 -9.454290 19.144863
v -12.292955 -7.213880 19.144863
v -13.659199 -4.657814 19.144863
v -14.500525 -1.884323 19.144863
v -14.784604 1.000012 19.144863
v -14.500521 3.884346 19.144863
v -13.659187 6.657837 19.144863
v -12.292940 9.213899 19.144863
v -10.454281 11.454306 19.144863
v -8.213870 13.292958 19.144863
v -5.657804 14.659200 19.144863
v -2.884312 15.500525 19.144863
v 2.543614 13.787609 19.976215
v -0.000000 14.038134 19.976215
v 4.989479 13.045662 19.976215
v 7.243600 11.840810 19.976215
v 9.219354 10.219352 19.976215
v 10.840814 8.243597 19.976215
v 12.045667 5.989477 19.976215
v 12.787610 3.543613 19.976215
v 13.038135 1.000000 19.976215
v 12.787612 -1.543614 19.976215
v 12.045667 -3.989478 19.976215
v 10.840814 -6.243601 19.976215
v 9.219354 -8.219355 19.976215
v 7.243599 -9.840816 19.976215
v 4.989477 -11.045671 19.976215
v 2.543611 -11.787613 19.976215
v -0.000005 -12.038138 19.976215
v -2.543620 -11.787613 19.976215
v -4.989484 -11.045666 19.976215
v -7.243607 -9.840813 19.976215
v -9.219359 -8.219350 19.976215
v -10.840818 -6.243594 19.976215
v -12.045671 -3.989470 19.976215
v -12.787613 -1.543605 19.976215
v -13.038135 1.000011 19.976215
v -12.787609 3.543626 19.976215
v -12.045660 5.989491 19.976215
v -10.840805 8.243611 19.976215
v -9.219342 10.219363 19.976215
v -7.243586 11.840822 19.976215
v -4.989461 13.045671 19.976215
v -2.543595 13.787614 19.976215
v 13.418516 -4.135822 18.296942
v 13.418516 -3.819344 18.623104
v 13.418516 -3.108224 18.703659
v 13.418516 -2.537951 18.477949
v 13.418516 -2.537951 18.115934
v 13.418516 -3.108224 17.890224
v 13.418516 -3.819344 17.970779
v 14.807657 -3.713530 18.296942
v 14.728411 -3.421142 18.623104
v 14.550345 -2.764154 18.703659
v 14.407549 -2.237290 18.477949
v 14.407549 -2.237290 18.115934
v 14.550345 -2.764154 17.890224
v 14.728411 -3.421142 17.970779
v 15.985313 -2.510945 18.296942
v 15.838886 -2.287161 18.623104
v 15.509865 -1.784324 18.703659
v 15.246011 -1.381080 18.477949
v 15.246011 -1.381080 18.115934
v 15.509865 -1.784324 17.890224
v 15.838886 -2.287161 17.970779
v 16.772198 -0.711152 18.296942
v 16.580881 -0.590042 18.623104
v 16.150993 -0.317908 18.703659
v 15.806252 -0.099674 18.477949
v 15.806252 -0.099674 18.115934
v 16.150993 -0.317908 17.890224
v 16.580881 -0.590042 17.970779
v 17.048515 1.411849 18.296942
v 16.841434 1.411849 18.623104
v 16.376129 1.411849 18.703659
v 16.002983 1.411849 18.477949
v 16.002983 1.411849 18.115934
v 16.376129 1.411849 17.890224
v 16.841434 1.411849 17.970779
v 16.772198 3.534849 18.296942
v 16.580879 3.413738 18.623104
v 16.150993 3.141604 18.703659
v 15.806252 2.923370 18.477949
v 15.806252 2.923370 18.115934
v 16.150993 3.141604 17.890224
v 16.580879 3.413738 17.970779
v 15.985312 5.334643 18.296942
v 15.838883 5.110858 18.623104
v 15.509863 4.608022 18.703659
v 15.246008 4.204778 18.477949
v 15.246008 4.204778 18.115934
v 15.509863 4.608022 17.890224
v 15.838883 5.110858 17.970779
v 14.807654 6.537226 18.296942
v 14.728409 6.244839 18.623104
v 14.550343 5.587851 18.703659
v 14.407546 5.060987 18.477949
v 14.407546 5.060987 18.115934
v 14.550343 5.587851 17.890224
v 14.728409 6.244839 17.970779
v 13.418512 6.959517 18.296942
v 13.418513 6.643040 18.623104
v 13.418513 5.931921 18.703659
v 13.418513 5.361647 18.477949
v 13.418513 5.361647 18.115934
v 13.418513 5.931921 17.890224
v 13.418513 6.643040 17.970779
v -13.418514 6.135821 18.296942
v -13.418514 5.819343 18.623104
v -13.418514 5.108223 18.703659
v -13.418514 4.537951 18.477949
v -13.418514 4.537951 18.115934
v -13.418514 5.108223 17.890224
v -13.418514 5.819343 17.970779
v -14.807655 5.713529 18.296942
v -14.728410 5.421142 18.623104
v -14.550344 4.764153 18.703659
v -14.407547 4.237289 18.477949
v -14.407547 4.237289 18.115934
v -14.550344 4.764153 17.890224
v -14.728410 5.421142 17.970779
v -15.985313 4.510945 18.296942
v -15.838884 4.287162 18.623104
v -15.509865 3.784325 18.703659
v -15.246010 3.381080 18.477949
v -15.246010 3.381080 18.115934
v -15.509865 3.784325 17.890224
v -15.838884 4.287162 17.970779
v -16.772198 2.711153 18.296942
v -16.580879 2.590042 18.623104
v -16.150993 2.317909 18.703659
v -15.806252 2.099674 18.477949
v -15.806252 2.099674 18.115934
v -16.150993 2.317909 17.890224
v -16.580879 2.590042 17.970779
v -17.048515 0.588152 18.296942
v -16.841434 0.588152 18.623104
v -16.376129 0.588152 18.703659
v -16.002983 0.588152 18.477949
v -16.002983 0.588152 18.115934
v -16.376129 0.588152 17.890224
v -16.841434 0.588152 17.970779
v -16.772198 -1.534848 18.296942
v -16.580881 -1.413737 18.623104
v -16.150993 -1.141604 18.703659
v -15.806252 -0.923370 18.477949
v -15.806252 -0.923370 18.115934
v -16.150993 -1.141604 17.890224
v -16.580881 -1.413737 17.970779
v -15.985313 -3.334643 18.296942
v -15.838884 -3.110858 18.623104
v -15.509865 -2.608022 18.703659
v -15.246010 -2.204777 18.477949
v -15.246010 -2.204777 18.115934
v -15.509865 -2.608022 17.890224
v -15.838884 -3.110858 17.970779
v -14.807655 -4.537227 18.296942
v -14.728410 -4.244839 18.623104
v -14.550344 -3.587852 18.703659
v -14.407547 -3.060987 18.477949
v -14.407547 -3.060987 18.115934
v -14.550344 -3.587852 17.890224
v -14.728410 -4.244839 17.970779
v -13.418514 -4.959518 18.296942
v -13.418514 -4.643041 18.623104
v -13.418514 -3.931921 18.703659
v -13.418514 -3.361648 18.477949
v -13.418514 -3.361648 18.115934
v -13.418514 -3.931921 17.890224
v -13.418514 -4.643041 17.970779
vn -0.0505 0.9931 -0.1061
vn 0.4266 0.8982 -0.1061
vn 0.3334 0.9368 -0.1061
vn 0.7379 0.6665 -0.1061
vn 0.6665 0.7379 -0.1061
vn 0.9368 0.3334 -0.1061
vn 0.8982 0.4266 -0.1061
vn 0.9931 -0.0505 -0.1061
vn 0.9931 0.0505 -0.1061
vn 0.8982 -0.4266 -0.1061
vn 0.9368 -0.3334 -0.1061
vn 0.6665 -0.7379 -0.1061
vn 0.7379 -0.6665 -0.1061
vn 0.3334 -0.9368 -0.1061
vn 0.4266 -0.8982 -0.1061
vn -0.0505 -0.9931 -0.1061
vn 0.0505 -0.9931 -0.1061
vn -0.4266 -0.8982 -0.1061
vn -0.3334 -0.9368 -0.1061
vn -0.7379 -0.6665 -0.1061
vn -0.6665 -0.7379 -0.1061
vn -0.9368 -0.3334 -0.1061
vn -0.8982 -0.4266 -0.1061
vn -0.9931 0.0505 -0.1061
vn -0.9931 -0.0505 -0.1061
vn -0.8982 0.4266 -0.1061
vn -0.9368 0.3334 -0.1061
vn -0.6665 0.7379 -0.1061
vn -0.7379 0.6665 -0.1061
vn -0.3334 0.9368 -0.1061
vn 0.0000 0.0000 -1.0000
vn -0.4266 0.8982 -0.1061
vn 0.0505 0.9931 -0.1061
vn -0.8809 -0.4708 -0.0492
vn -0.4294 0.0423 0.9021
vn 0.9940 -0.0979 -0.0492
vn -0.9558 -0.2899 -0.0492
vn 0.9558 -0.2899 -0.0492
vn -0.9940 -0.0979 -0.0492
vn 0.8809 -0.4708 -0.0492
vn -0.9940 0.0979 -0.0492
vn 0.7721 -0.6336 -0.0492
vn -0.9558 0.2899 -0.0492
vn 0.6336 -0.7721 -0.0492
vn -0.8809 0.4708 -0.0492
vn 0.4708 -0.8809 -0.0492
vn 0.0979 0.9940 -0.0492
vn -0.7721 0.6336 -0.0492
vn 0.2899 -0.9558 -0.0492
vn 0.2899 0.9558 -0.0492
vn -0.6336 0.7721 -0.0492
vn 0.0979 -0.9940 -0.0492
vn 0.4708 0.8809 -0.0492
vn -0.4708 0.8809 -0.0492
vn -0.0979 -0.9940 -0.0492
vn 0.6336 0.7721 -0.0492
vn -0.2899 0.9558 -0.0492
vn -0.2899 -0.9558 -0.0492
vn 0.7721 0.6336 -0.0492
vn -0.0979 0.9940 -0.0492
vn -0.4708 -0.8809 -0.0492
vn 0.8809 0.4708 -0.0492
vn -0.6336 -0.7721 -0.0492
vn 0.9558 0.2899 -0.0492
vn -0.7721 -0.6336 -0.0492
vn 0.9940 0.0979 -0.0492
vn -0.0000 0.0000 1.0000
vn 0.3336 -0.2737 0.9021
vn -0.4129 0.1253 0.9021
vn 0.2737 -0.3336 0.9021
vn -0.3805 0.2034 0.9021
vn 0.2034 -0.3805 0.9021
vn 0.0423 0.4294 0.9021
vn -0.3336 0.2737 0.9021
vn 0.1253 -0.4129 0.9021
vn 0.1253 0.4129 0.9021
vn -0.2737 0.3336 0.9021
vn 0.0423 -0.4294 0.9021
vn 0.2034 0.3805 0.9021
vn -0.2034 0.3805 0.9021
vn -0.0423 -0.4294 0.9021
vn 0.2737 0.3336 0.9021
vn -0.1253 0.4129 0.9021
vn -0.1253 -0.4129 0.9021
vn 0.3336 0.2737 0.9021
vn -0.0423 0.4294 0.9021
vn -0.2034 -0.3805 0.9021
vn 0.3805 0.2034 0.9021
vn -0.2737 -0.3336 0.9021
vn 0.4129 0.1253 0.9021
vn -0.3336 -0.2737 0.9021
vn 0.4294 0.0423 0.9021
vn -0.3805 -0.2034 0.9021
vn 0.4294 -0.0423 0.9021
vn -0.4129 -0.1253 0.9021
vn 0.4129 -0.1253 0.9021
vn -0.4294 -0.0423 0.9021
vn 0.3805 -0.2034 0.9021
vn 0.2132 -0.7012 0.6804
vn 0.0342 -0.1125 0.9931
vn -0.1112 0.3657 0.9241
vn -0.2909 0.9568 0.0000
vn -0.1112 0.3657 -0.9241
vn 0.0342 -0.1125 -0.9931
vn 0.2132 -0.7012 -0.6804
vn 0.5577 -0.5461 0.6251
vn 0.0972 -0.0951 0.9907
vn -0.3089 0.3025 0.9017
vn -0.7145 0.6997 0.0000
vn -0.3089 0.3025 -0.9017
vn 0.0972 -0.0951 -0.9907
vn 0.5577 -0.5461 -0.6251
vn 0.7555 -0.3303 0.5658
vn 0.1449 -0.0634 0.9874
vn -0.4475 0.1956 0.8726
vn -0.9163 0.4006 0.0000
vn -0.4475 0.1956 -0.8726
vn 0.1449 -0.0634 -0.9874
vn 0.7555 -0.3303 -0.5658
vn 0.8392 -0.1092 0.5328
vn 0.1705 -0.0222 0.9851
vn -0.5164 0.0672 0.8537
vn -0.9916 0.1291 0.0000
vn -0.5164 0.0672 -0.8537
vn 0.1705 -0.0222 -0.9851
vn 0.8392 -0.1092 -0.5328
vn 0.8392 0.1092 0.5328
vn 0.1705 0.0222 0.9851
vn -0.5164 -0.0672 0.8537
vn -0.9916 -0.1291 0.0000
vn -0.5164 -0.0672 -0.8537
vn 0.1705 0.0222 -0.9851
vn 0.8392 0.1092 -0.5328
vn 0.7555 0.3303 0.5658
vn 0.1449 0.0634 0.9874
vn -0.4475 -0.1956 0.8726
vn -0.9163 -0.4006 0.0000
vn -0.4475 -0.1956 -0.8726
vn 0.1449 0.0634 -0.9874
vn 0.7555 0.3303 -0.5658
vn 0.5577 0.5461 0.6251
vn 0.0972 0.0951 0.9907
vn -0.3089 -0.3025 0.9017
vn -0.7145 -0.6997 0.0000
vn -0.3089 -0.3025 -0.9017
vn 0.0972 0.0951 -0.9907
vn 0.5577 0.5461 -0.6251
vn 0.2132 0.7012 0.6804
vn 0.0342 0.1125 0.9931
vn -0.1112 -0.3657 0.9241
vn -0.2909 -0.9568 0.0000
vn -0.1112 -0.3657 -0.9241
vn 0.0342 0.1125 -0.9931
vn 0.2132 0.7012 -0.6804
vn -0.2132 0.7012 0.6804
vn -0.0342 0.1125 0.9931
vn 0.1112 -0.3657 0.9241
vn 0.2909 -0.9568 0.0000
vn 0.1112 -0.3657 -0.9241
vn -0.0342 0.1125 -0.9931
vn -0.2132 0.7012 -0.6804
vn -0.5577 0.5461 0.6251
vn -0.0972 0.0951 0.9907
vn 0.3089 -0.3025 0.9017
vn 0.7145 -0.6997 0.0000
vn 0.3089 -0.3025 -0.9017
vn -0.0972 0.0951 -0.9907
vn -0.5577 0.5461 -0.6251
vn -0.7555 0.3303 0.5658
vn -0.1449 0.0634 0.9874
vn 0.4475 -0.1956 0.8726
vn 0.9163 -0.4006 0.0000
vn 0.4475 -0.1956 -0.8726
vn -0.1449 0.0634 -0.9874
vn -0.7555 0.3303 -0.5658
vn -0.8392 0.1092 0.5328
vn -0.1705 0.0222 0.9851
vn 0.5164 -0.0672 0.8537
vn 0.9916 -0.1291 0.0000
vn 0.5164 -0.0672 -0.8537
vn -0.1705 0.0222 -0.9851
vn -0.8392 0.1092 -0.5328
vn -0.8392 -0.1092 0.5328
vn -0.1705 -0.0222 0.9851
vn 0.5164 0.0672 0.8537
vn 0.9916 0.1291 0.0000
vn 0.5164 0.0672 -0.8537
vn -0.1705 -0.0222 -0.9851
vn -0.8392 -0.1092 -0.5328
vn -0.7555 -0.3303 0.5658
vn -0.1449 -0.0634 0.9874
vn 0.4475 0.1956 0.8726
vn 0.9163 0.4006 0.0000
vn 0.4475 0.1956 -0.8726
vn -0.1449 -0.0634 -0.9874
vn -0.7555 -0.3303 -0.5658
vn -0.5577 -0.5461 0.6251
vn -0.0972 -0.0951 0.9907
vn 0.3089 0.3025 0.9017
vn 0.7145 0.6997 0.0000
vn 0.3089 0.3025 -0.9017
vn -0.0972 -0.0951 -0.9907
vn -0.5577 -0.5461 -0.6251
vn -0.2132 -0.7012 0.6804
vn -0.0342 -0.1125 0.9931
vn 0.1112 0.3657 0.9241
vn 0.2909 0.9568 0.0000
vn 0.1112 0.3657 -0.9241
vn -0.0342 -0.1125 -0.9931
vn -0.2132 -0.7012 -0.6804
s off
f 1//1 2//1 4//1 3//1
f 3//2 4//2 6//2 5//2
f 5//3 6//3 8//3 7//3
f 7//4 8//4 10//4 9//4
f 9//5 10//5 12//5 11//5
f 11//6 12//6 14//6 13//6
f 13//7 14//7 16//7 15//7
f 15//8 16//8 18//8 17//8
f 17//9 18//9 20//9 19//9
f 19//10 20//10 22//10 21//10
f 21//11 22//11 24//11 23//11
f 23//12 24//12 26//12 25//12
f 25//13 26//13 28//13 27//13
f 27//14 28//14 30//14 29//14
f 29//15 30//15 32//15 31//15
f 31//16 32//16 34//16 33//16
f 33//17 34//17 36//17 35//17
f 35//18 36//18 38//18 37//18
f 37//19 38//19 40//19 39//19
f 39//20 40//20 42//20 41//20
f 41//21 42//21 44//21 43//21
f 43//22 44//22 46//22 45//22
f 45//23 46//23 48//23 47//23
f 47//24 48//24 50//24 49//24
f 49//25 50//25 52//25 51//25
f 51//26 52//26 54//26 53//26
f 53//27 54//27 56//27 55//27
f 55//28 56//28 58//28 57//28
f 57//29 58//29 60//29 59//29
f 59//30 60//30 62//30 61//30
f 36//31 34//31 81//31 82//31
f 61//32 62//32 64//32 63//32
f 63//33 64//33 2//33 1//33
f 1//31 3//31 5//31 7//31 9//31 11//31 13//31 15//31 17//31 19//31 21//31 23//31 25//31 27//31 29//31 31//31 33//31 35//31 37//31 39//31 41//31 43//31 45//31 47//31 49//31 51//31 53//31 55//31 57//31 59//31 61//31 63//31
f 87//34 86//34 118//34 119//34
f 54//31 52//31 90//31 91//31
f 10//31 8//31 68//31 69//31
f 28//31 26//31 77//31 78//31
f 46//31 44//31 86//31 87//31
f 64//31 62//31 95//31 96//31
f 20//31 18//31 73//31 74//31
f 38//31 36//31 82//31 83//31
f 56//31 54//31 91//31 92//31
f 12//31 10//31 69//31 70//31
f 30//31 28//31 78//31 79//31
f 48//31 46//31 87//31 88//31
f 4//31 2//31 66//31 65//31
f 2//31 64//31 96//31 66//31
f 22//31 20//31 74//31 75//31
f 40//31 38//31 83//31 84//31
f 58//31 56//31 92//31 93//31
f 14//31 12//31 70//31 71//31
f 32//31 30//31 79//31 80//31
f 50//31 48//31 88//31 89//31
f 6//31 4//31 65//31 67//31
f 24//31 22//31 75//31 76//31
f 42//31 40//31 84//31 85//31
f 60//31 58//31 93//31 94//31
f 16//31 14//31 71//31 72//31
f 34//31 32//31 80//31 81//31
f 52//31 50//31 89//31 90//31
f 8//31 6//31 67//31 68//31
f 26//31 24//31 76//31 77//31
f 44//31 42//31 85//31 86//31
f 62//31 60//31 94//31 95//31
f 18//31 16//31 72//31 73//31
f 122//35 121//35 153//35 154//35
f 74//36 73//36 105//36 106//36
f 88//37 87//37 119//37 120//37
f 75//38 74//38 106//38 107//38
f 89//39 88//39 120//39 121//39
f 76//40 75//40 107//40 108//40
f 90//41 89//41 121//41 122//41
f 77//42 76//42 108//42 109//42
f 91//43 90//43 122//43 123//43
f 78//44 77//44 109//44 110//44
f 92//45 91//45 123//45 124//45
f 79//46 78//46 110//46 111//46
f 65//47 66//47 98//47 97//47
f 93//48 92//48 124//48 125//48
f 80//49 79//49 111//49 112//49
f 67//50 65//50 97//50 99//50
f 94//51 93//51 125//51 126//51
f 81//52 80//52 112//52 113//52
f 68//53 67//53 99//53 100//53
f 95//54 94//54 126//54 127//54
f 82//55 81//55 113//55 114//55
f 69//56 68//56 100//56 101//56
f 96//57 95//57 127//57 128//57
f 83//58 82//58 114//58 115//58
f 70//59 69//59 101//59 102//59
f 66//60 96//60 128//60 98//60
f 84//61 83//61 115//61 116//61
f 71//62 70//62 102//62 103//62
f 85//63 84//63 116//63 117//63
f 72//64 71//64 103//64 104//64
f 86//65 85//65 117//65 118//65
f 73//66 72//66 104//66 105//66
f 129//67 130//67 160//67 159//67 158//67 157//67 156//67 155//67 154//67 153//67 152//67 151//67 150//67 149//67 148//67 147//67 146//67 145//67 144//67 143//67 142//67 141//67 140//67 139//67 138//67 137//67 136//67 135//67 134//67 133//67 132//67 131//67
f 109//68 108//68 140//68 141//68
f 123//69 122//69 154//69 155//69
f 110//70 109//70 141//70 142//70
f 124//71 123//71 155//71 156//71
f 111//72 110//72 142//72 143//72
f 97//73 98//73 130//73 129//73
f 125//74 124//74 156//74 157//74
f 112//75 111//75 143//75 144//75
f 99//76 97//76 129//76 131//76
f 126//77 125//77 157//77 158//77
f 113//78 112//78 144//78 145//78
f 100//79 99//79 131//79 132//79
f 127//80 126//80 158//80 159//80
f 114//81 113//81 145//81 146//81
f 101//82 100//82 132//82 133//82
f 128//83 127//83 159//83 160//83
f 115//84 114//84 146//84 147//84
f 102//85 101//85 133//85 134//85
f 98//86 128//86 160//86 130//86
f 116//87 115//87 147//87 148//87
f 103//88 102//88 134//88 135//88
f 117//89 116//89 148//89 149//89
f 104//90 103//90 135//90 136//90
f 118//91 117//91 149//91 150//91
f 105//92 104//92 136//92 137//92
f 119//93 118//93 150//93 151//93
f 106//94 105//94 137//94 138//94
f 120//95 119//95 151//95 152//95
f 107//96 106//96 138//96 139//96
f 121//97 120//97 152//97 153//97
f 108//98 107//98 139//98 140//98
f 161//99 168//99 169//99 162//99
f 162//100 169//100 170//100 163//100
f 163//101 170//101 171//101 164//101
f 164//102 171//102 172//102 165//102
f 165//103 172//103 173//103 166//103
f 166//104 173//104 174//104 167//104
f 167//105 174//105 168//105 161//105
f 168//106 175//106 176//106 169//106
f 169//107 176//107 177//107 170//107
f 170//108 177//108 178//108 171//108
f 171//109 178//109 179//109 172//109
f 172//110 179//110 180//110 173//110
f 173//111 180//111 181//111 174//111
f 174//112 181//112 175//112 168//112
f 175//113 182//113 183//113 176//113
f 176//114 183//114 184//114 177//114
f 177//115 184//115 185//115 178//115
f 178//116 185//116 186//116 179//116
f 179//117 186//117 187//117 180//117
f 180//118 187//118 188//118 181//118
f 181//119 188//119 182//119 175//119
f 182//120 189//120 190//120 183//120
f 183//121 190//121 191//121 184//121
f 184//122 191//122 192//122 185//122
f 185//123 192//123 193//123 186//123
f 186//124 193//124 194//124 187//124
f 187//125 194//125 195//125 188//125
f 188//126 195//126 189//126 182//126
f 189//127 196//127 197//127 190//127
f 190//128 197//128 198//128 191//128
f 191//129 198//129 199//129 192//129
f 192//130 199//130 200//130 193//130
f 193//131 200//131 201//131 194//131
f 194//132 201//132 202//132 195//132
f 195//133 202//133 196//133 189//133
f 196//134 203//134 204//134 197//134
f 197//135 204//135 205//135 198//135
f 198//136 205//136 206//136 199//136
f 199//137 206//137 207//137 200//137
f 200//138 207//138 208//138 201//138
f 201//139 208//139 209//139 202//139
f 202//140 209//140 203//140 196//140
f 203//141 210//141 211//141 204//141
f 204//142 211//142 212//142 205//142
f 205//143 212//143 213//143 206//143
f 206//144 213//144 214//144 207//144
f 207//145 214//145 215//145 208//145
f 208//146 215//146 216//146 209//146
f 209//147 216//147 210//147 203//147
f 210//148 217//148 218//148 211//148
f 211//149 218//149 219//149 212//149
f 212//150 219//150 220//150 213//150
f 213//151 220//151 221//151 214//151
f 214//152 221//152 222//152 215//152
f 215//153 222//153 223//153 216//153
f 216//154 223//154 217//154 210//154
f 224//155 231//155 232//155 225//155
f 225//156 232//156 233//156 226//156
f 226//157 233//157 234//157 227//157
f 227//158 234//158 235//158 228//158
f 228//159 235//159 236//159 229//159
f 229//160 236//160 237//160 230//160
f 230//161 237//161 231//161 224//161
f 231//162 238//162 239//162 232//162
f 232//163 239//163 240//163 233//163
f 233//164 240//164 241//164 234//164
f 234//165 241//165 242//165 235//165
f 235//166 242//166 243//166 236//166
f 236//167 243//167 244//167 237//167
f 237//168 244//168 238//168 231//168
f 238//169 245//169 246//169 239//169
f 239//170 246//170 247//170 240//170
f 240//171 247//171 248//171 241//171
f 241//172 248//172 249//172 242//172
f 242//173 249//173 250//173 243//173
f 243//174 250//174 251//174 244//174
f 244//175 251//175 245//175 238//175
f 245//176 252//176 253//176 246//176
f 246//177 253//177 254//177 247//177
f 247//178 254//178 255//178 248//178
f 248//179 255//179 256//179 249//179
f 249//180 256//180 257//180 250//180
f 250//181 257//181 258//181 251//181
f 251//182 258//182 252//182 245//182
f 252//183 259//183 260//183 253//183
f 253//184 260//184 261//184 254//184
f 254//185 261//185 262//185 255//185
f 255//186 262//186 263//186 256//186
f 256//187 263//187 264//187 257//187
f 257//188 264//188 265//188 258//188
f 258//189 265//189 259//189 252//189
f 259//190 266//190 267//190 260//190
f 260//191 267//191 268//191 261//191
f 261//192 268//192 269//192 262//192
f 262//193 269//193 270//193 263//193
f 263//194 270//194 271//194 264//194
f 264//195 271//195 272//195 265//195
f 265//196 272//196 266//196 259//196
f 266//197 273//197 274//197 267//197
f 267//198 274//198 275//198 268//198
f 268//199 275//199 276//199 269//199
f 269//200 276//200 277//200 270//200
f 270//201 277//201 278//201 271//201
f 271//202 278//202 279//202 272//202
f 272//203 279//203 273//203 266//203
f 273//204 280//204 281//204 274//204
f 274//205 281//205 282//205 275//205
f 275//206 282//206 283//206 276//206
f 276//207 283//207 284//207 277//207
f 277//208 284//208 285//208 278//208
f 278//209 285//209 286//209 279//209
f 279//210 286//210 280//210 273//210
